<?xml version="1.0" encoding="utf-8"?>
<!-- Generator: Adobe Illustrator 16.0.0, SVG Export Plug-In . SVG Version: 6.00 Build 0)  -->
<!DOCTYPE svg PUBLIC "-//W3C//DTD SVG 1.1//EN" "http://www.w3.org/Graphics/SVG/1.1/DTD/svg11.dtd">
<svg version="1.1" xmlns="http://www.w3.org/2000/svg" xmlns:xlink="http://www.w3.org/1999/xlink" x="0px" y="0px" width="600px"
	 height="543px" viewBox="0 0 600 543" enable-background="new 0 0 600 543" xml:space="preserve">
<g id="Layer_1">
	<g>
		<path fill="none" stroke="#000000" stroke-width="12" stroke-miterlimit="10" d="M467.518,30.905
			c20.853,0,40.559,8.181,55.44,23.053c14.883,14.885,23.056,34.593,23.056,55.444v333.613c0,20.853-8.177,40.56-23.056,55.438
			c-14.882,14.885-34.591,23.062-55.44,23.062H133.905c-20.852,0-40.557-8.177-55.438-23.062
			c-14.884-14.879-23.059-34.586-23.059-55.438V109.402c0-20.852,8.175-40.56,23.059-55.444
			c14.884-14.872,34.589-23.053,55.438-23.053H467.518 M467.519,25.998H133.905c-45.873,0-83.405,37.532-83.405,83.404v333.613
			c0,45.875,37.532,83.405,83.405,83.405h333.614c45.872,0,83.404-37.53,83.404-83.405V109.402
			C550.923,63.53,513.391,25.998,467.519,25.998z"/>
		<g>
			<path fill="none" stroke="#000000" stroke-width="16" stroke-miterlimit="10" d="M188.579,130.134h98.644
				c45.76,0,78.83,5.969,99.213,17.901c20.377,11.935,30.57,30.787,30.57,56.551c0,17.36-5,31.803-15.002,43.329
				c-10,11.528-24.398,18.784-43.186,21.766v2.034c23.334,3.936,40.494,11.697,51.482,23.292
				c10.984,11.595,16.479,27.293,16.479,47.092c0,26.718-10.42,47.636-31.252,62.755c-20.838,15.123-49.816,22.682-86.939,22.682
				H188.579V130.134z M242.901,253h52.277c22.729,0,39.32-3.22,49.777-9.663c10.455-6.439,15.682-17.393,15.682-32.853
				c0-13.966-5.646-24.07-16.932-30.31c-11.291-6.236-29.207-9.357-53.755-9.357h-47.049V253z M242.901,292.464v94.184h57.732
				c22.729,0,39.889-3.896,51.48-11.696c11.592-7.797,17.389-20.104,17.389-36.921c0-15.46-5.91-26.918-17.729-34.378
				c-11.82-7.457-29.775-11.188-53.868-11.188H242.901z"/>
		</g>
	</g>
</g>
<g id="Layer_2">
</g>
</svg>
